<svg width="32" height="32" viewBox="0 0 32 32" fill="none" xmlns="http://www.w3.org/2000/svg">
<g id="Group 427320702">
<path id="Vector" d="M31.0727 16.4928C31.0727 15.1954 30.9674 14.2486 30.7396 13.2668H15.9244V19.1226H24.6206C24.4453 20.5779 23.4986 22.7695 21.3946 24.2421L21.3651 24.4382L26.0494 28.067L26.3739 28.0994C29.3544 25.3467 31.0727 21.2967 31.0727 16.4928" fill="#4285F4"/>
<path id="Vector_2" d="M15.9244 31.9218C20.1848 31.9218 23.7614 30.5191 26.3738 28.0997L21.3945 24.2424C20.0621 25.1717 18.2737 25.8204 15.9244 25.8204C11.7516 25.8204 8.21005 23.0678 6.94758 19.2632L6.76253 19.2789L1.89176 23.0485L1.82806 23.2255C4.42287 28.3801 9.75282 31.9218 15.9244 31.9218Z" fill="#34A853"/>
<path id="Vector_3" d="M6.94714 19.2632C6.61403 18.2814 6.42124 17.2294 6.42124 16.1424C6.42124 15.0553 6.61403 14.0034 6.92961 13.0216L6.92079 12.8125L1.98899 8.98239L1.82763 9.05914C0.758182 11.1982 0.144531 13.6002 0.144531 16.1424C0.144531 18.6846 0.758182 21.0865 1.82763 23.2256L6.94714 19.2632" fill="#FBBC05"/>
<path id="Vector_4" d="M15.9244 6.46405C18.8873 6.46405 20.886 7.74392 22.0257 8.81349L26.479 4.46536C23.744 1.92313 20.1848 0.362717 15.9244 0.362717C9.75282 0.362717 4.42287 3.90429 1.82806 9.05886L6.93005 13.0213C8.21005 9.21671 11.7516 6.46405 15.9244 6.46405" fill="#EB4335"/>
</g>
</svg>
